<svg width="449" height="384" viewBox="0 0 449 384" fill="none" xmlns="http://www.w3.org/2000/svg">
<path d="M260.236 40.0033C246.786 32.5233 230.126 27.6033 214.846 31.9833C202.986 35.3833 194.036 44.2433 187.276 54.2233C179.666 65.4533 174.306 78.0433 168.626 90.3133C165.146 97.8233 161.356 105.043 156.276 111.623C150.816 118.703 144.316 124.983 137.066 130.203C129.566 135.593 121.306 139.803 112.546 142.713C102.556 146.033 92.1761 147.873 81.9261 150.193C65.0761 154.023 47.2061 159.973 36.1761 174.153C31.2961 180.423 28.3961 188.023 28.2661 195.993C28.1261 204.173 30.7461 212.233 34.8761 219.233C44.2461 235.143 60.5361 244.243 77.5361 250.073C95.7361 256.313 114.946 259.283 132.766 266.683C141.666 270.383 150.186 275.233 157.246 281.863C164.246 288.443 169.656 296.453 174.466 304.713C183.536 320.313 190.836 337.323 203.906 350.153C209.936 356.073 217.146 360.863 225.286 363.303C233.466 365.743 242.206 365.743 250.516 363.973C289.566 355.643 306.946 316.293 322.686 283.983C331.486 265.923 341.246 248.343 356.076 234.493C370.396 221.123 387.486 210.923 400.836 196.483C412.696 183.663 421.616 167.243 419.526 149.273C417.536 132.193 406.906 117.083 393.866 106.393C378.846 94.0833 360.266 86.8833 342.226 80.2633C332.546 76.7133 322.746 73.4033 313.346 69.1433C304.066 64.9333 295.146 60.0033 286.336 54.9033C282.126 52.4633 277.946 49.9833 273.746 47.5233C269.286 44.9133 264.656 42.6533 260.146 40.1433C259.796 39.9433 259.476 40.4833 259.826 40.6833C264.326 43.1833 268.606 46.0933 273.046 48.7033C277.246 51.1633 281.426 53.6433 285.636 56.0833C294.246 61.0733 302.966 65.8933 312.016 70.0333C329.966 78.2533 349.146 83.4033 367.046 91.7633C383.736 99.5533 399.436 110.013 409.456 125.833C414.056 133.093 417.336 141.293 418.236 149.873C419.176 158.823 417.376 167.773 413.556 175.883C405.556 192.873 390.646 204.993 376.136 216.263C368.436 222.243 360.656 228.173 353.626 234.943C346.826 241.483 340.976 248.873 335.896 256.813C325.536 273.003 318.286 290.883 309.396 307.873C300.716 324.453 290.096 341.053 274.476 351.913C260.046 361.943 241.036 367.323 223.926 361.443C207.086 355.653 195.956 340.323 187.476 325.483C178.476 309.723 170.996 292.433 157.266 280.053C143.706 267.833 125.876 262.053 108.576 257.433C90.2961 252.553 71.2061 248.553 55.0861 238.133C40.8661 228.943 29.0461 213.043 29.6061 195.453C30.1661 177.633 44.5661 165.103 59.8061 158.383C78.0961 150.313 98.6161 149.603 117.216 142.443C132.796 136.443 146.606 126.103 156.876 112.963C165.996 101.303 171.136 87.4133 177.546 74.2133C183.076 62.8233 189.346 51.1433 198.836 42.5233C208.636 33.6133 221.216 30.2533 234.256 32.0733C243.246 33.3233 251.796 36.5233 259.746 40.8533C260.286 41.1233 260.766 40.3033 260.236 40.0033Z" fill="url(#paint0_linear_15_92)"/>
<g opacity="0.4248">
<path opacity="0.4248" d="M265.436 11.0433C250.056 2.49332 230.996 -3.12667 213.526 1.89333C199.976 5.78333 189.746 15.9133 182.026 27.3133C173.316 40.1733 167.186 54.5833 160.676 68.6233C156.686 77.2333 152.346 85.4933 146.536 93.0333C140.286 101.143 132.836 108.353 124.516 114.323C115.926 120.503 106.456 125.323 96.4261 128.653C84.9961 132.453 73.1061 134.553 61.3761 137.223C42.1061 141.603 21.6561 148.403 9.0361 164.623C3.4661 171.783 0.1661 180.463 0.00609968 189.563C-0.1539 198.913 2.8461 208.113 7.5561 216.113C18.2661 234.303 36.8961 244.713 56.3361 251.373C77.1761 258.513 99.1661 261.913 119.566 270.383C129.776 274.623 139.546 280.183 147.636 287.783C155.656 295.313 161.856 304.493 167.366 313.963C177.736 331.813 186.096 351.283 201.056 365.963C207.946 372.733 216.176 378.203 225.486 380.993C234.836 383.783 244.816 383.783 254.316 381.763C298.986 372.233 318.866 327.203 336.876 290.233C346.956 269.553 358.126 249.413 375.126 233.553C391.526 218.253 411.086 206.573 426.366 190.043C439.926 175.383 450.126 156.613 447.726 136.063C445.446 116.543 433.286 99.2633 418.376 87.0433C401.196 72.9633 379.936 64.7233 359.306 57.1533C348.216 53.0833 336.986 49.2933 326.216 44.4133C315.596 39.5933 305.376 33.9533 295.296 28.1033C290.476 25.3133 285.686 22.4733 280.886 19.6533C275.786 16.6633 270.506 14.0333 265.346 11.1633C264.996 10.9633 264.676 11.5033 265.026 11.7033C270.176 14.5633 275.106 17.8533 280.196 20.8333C284.996 23.6533 289.796 26.4833 294.606 29.2833C304.456 34.9933 314.436 40.5133 324.796 45.2533C345.346 54.6633 367.306 60.5533 387.796 70.1233C406.916 79.0533 424.896 91.0333 436.386 109.153C441.656 117.473 445.416 126.883 446.446 136.723C447.526 146.993 445.456 157.243 441.066 166.553C431.896 186.013 414.826 199.893 398.216 212.803C389.396 219.653 380.496 226.433 372.446 234.183C364.666 241.663 357.976 250.123 352.166 259.203C340.306 277.743 332.006 298.213 321.826 317.663C311.876 336.663 299.716 355.673 281.816 368.113C265.276 379.603 243.476 385.773 223.866 379.023C204.566 372.383 191.796 354.823 182.076 337.803C171.776 319.773 163.216 299.983 147.506 285.813C131.996 271.833 111.596 265.223 91.8061 259.943C70.8761 254.353 49.0061 249.763 30.5561 237.843C14.2561 227.313 0.706102 209.073 1.3361 188.903C1.9761 168.473 18.4861 154.093 35.9561 146.383C56.8961 137.143 80.4061 136.333 101.706 128.123C119.516 121.263 135.316 109.423 147.066 94.4033C157.506 81.0533 163.386 65.1633 170.716 50.0633C177.056 37.0133 184.236 23.6433 195.106 13.7633C206.356 3.54332 220.776 -0.30668 235.746 1.79332C246.046 3.23332 255.836 6.89333 264.936 11.8633C265.496 12.1533 265.976 11.3333 265.436 11.0433Z" fill="url(#paint1_linear_15_92)"/>
</g>
<path d="M337.816 237.173C349.596 224.443 364.496 215.303 377.356 203.783C388.566 193.743 398.866 180.983 401.386 165.733C403.806 151.013 398.086 136.533 388.856 125.223C378.576 112.623 364.266 104.443 349.526 98.0833C333.416 91.1333 316.406 86.4033 300.606 78.7233C284.866 71.0633 270.406 61.1433 254.896 53.0933C243.146 46.9933 228.716 43.2633 215.646 47.0333C205.586 49.9333 197.786 57.1733 191.806 65.5133C184.976 75.0333 180.166 85.8533 175.296 96.4433C172.506 102.523 169.776 108.623 166.106 114.243C161.996 120.523 157.026 126.233 151.396 131.193C145.626 136.283 139.146 140.563 132.206 143.873C124.216 147.683 115.626 149.913 107.016 151.823C91.356 155.293 75.036 158.093 61.886 167.953C56.356 172.103 51.576 177.383 48.786 183.773C45.996 190.153 45.436 197.223 46.846 204.023C49.876 218.603 60.576 230.343 73.206 237.583C101.746 253.953 139.646 251.143 164.166 275.043C176.066 286.643 182.516 302.263 190.816 316.353C198.186 328.873 207.676 341.323 221.546 346.953C235.696 352.703 251.816 349.703 264.846 342.483C278.936 334.683 289.256 321.803 297.356 308.163C299.396 304.723 301.316 301.223 303.156 297.673C305.056 294.023 306.516 290.203 308.306 286.503C308.476 286.143 307.946 285.823 307.766 286.183C305.996 289.853 303.856 293.363 301.976 296.973C300.086 300.603 298.126 304.203 296.026 307.723C291.896 314.653 287.266 321.303 281.786 327.233C271.216 338.673 256.966 347.273 241.176 348.493C233.586 349.083 225.926 347.793 219.096 344.373C212.426 341.033 206.806 335.983 202.046 330.293C192.016 318.303 186.016 303.723 177.856 290.513C173.796 283.943 169.156 277.663 163.406 272.473C157.626 267.253 150.856 263.253 143.756 260.123C129.166 253.683 113.416 250.783 98.196 246.253C83.036 241.743 67.626 235.293 57.456 222.653C48.246 211.203 43.876 195.243 51.316 181.733C58.536 168.623 73.206 161.643 87.046 157.833C103.236 153.373 120.206 151.683 135.306 143.853C148.046 137.253 159.056 127.343 166.976 115.383C173.736 105.183 177.906 93.4033 183.386 82.5033C188.226 72.8933 193.816 63.1533 202.056 56.0333C210.596 48.6533 221.386 45.8633 232.516 47.2633C249.126 49.3433 263.166 59.2533 277.276 67.4933C284.706 71.8333 292.196 76.0933 299.946 79.8533C307.416 83.4833 315.116 86.4333 322.916 89.2633C351.936 99.8333 387.336 112.043 398.256 144.343C400.666 151.463 401.376 159.083 399.966 166.483C398.526 174.023 395.096 181.023 390.686 187.263C381.266 200.623 367.826 210.083 355.186 220.123C348.816 225.183 342.616 230.463 337.146 236.493C336.736 236.953 337.406 237.623 337.816 237.173Z" fill="url(#paint2_linear_15_92)"/>
<defs>
<linearGradient id="paint0_linear_15_92" x1="50.4541" y1="264.607" x2="414.74" y2="132.018" gradientUnits="userSpaceOnUse">
<stop offset="0.0277" stop-color="#FFD24D"/>
<stop offset="0.0356" stop-color="#F7CC4C"/>
<stop offset="0.0797" stop-color="#CEAE4A"/>
<stop offset="0.1292" stop-color="#A89348"/>
<stop offset="0.1831" stop-color="#887B45"/>
<stop offset="0.2427" stop-color="#6C6744"/>
<stop offset="0.3099" stop-color="#565742"/>
<stop offset="0.3884" stop-color="#454B41"/>
<stop offset="0.4856" stop-color="#3A4241"/>
<stop offset="0.6218" stop-color="#333D40"/>
<stop offset="1" stop-color="#313C40"/>
</linearGradient>
<linearGradient id="paint1_linear_15_92" x1="0.00489968" y1="191.601" x2="448.084" y2="191.601" gradientUnits="userSpaceOnUse">
<stop stop-color="#5C5A44"/>
<stop offset="0.6103" stop-color="#3F4541"/>
<stop offset="1" stop-color="#313C40"/>
</linearGradient>
<linearGradient id="paint2_linear_15_92" x1="138.716" y1="90.4005" x2="329.413" y2="281.098" gradientUnits="userSpaceOnUse">
<stop stop-color="#313C40"/>
<stop offset="0.251" stop-color="#333E40"/>
<stop offset="0.397" stop-color="#3C4441"/>
<stop offset="0.5161" stop-color="#4A4E42"/>
<stop offset="0.6208" stop-color="#5E5D43"/>
<stop offset="0.716" stop-color="#786F44"/>
<stop offset="0.8042" stop-color="#988746"/>
<stop offset="0.8873" stop-color="#BDA249"/>
<stop offset="0.964" stop-color="#E8C14C"/>
<stop offset="1" stop-color="#FFD24D"/>
</linearGradient>
</defs>
</svg>
