<svg width="316" height="469" viewBox="0 0 316 469" fill="none" xmlns="http://www.w3.org/2000/svg">
<g clip-path="url(#clip0_260_32)">
<path d="M227.828 126C262.622 126 290.828 97.7939 290.828 63C290.828 28.2061 262.622 0 227.828 0C193.034 0 164.828 28.2061 164.828 63C164.828 97.7939 193.034 126 227.828 126Z" fill="#FF6884"/>
<path d="M134.887 456.499L3.83357 451.97L0.00202933 132.469C-0.0907407 124.714 3.00105 117.12 8.48543 111.636L144.606 35.5153C155.262 24.8605 172.033 24.0905 183.619 33.7287L266.227 102.447C272.966 108.053 276.772 116.296 276.669 125.061L273.83 365.342L309.734 415.208L309.81 415.314L315.894 468.037L134.887 456.499H134.887Z" fill="#262831"/>
<path d="M146.828 109.908V95.0923C146.828 91.1817 150.01 88 153.921 88H174.737C178.647 88 181.828 91.1816 181.828 95.0923V109.908C181.828 113.818 178.647 117 174.737 117H153.921C150.01 117 146.828 113.818 146.828 109.908V109.908Z" fill="#BCD3E7"/>
<path d="M102.828 224.908V170.092C102.828 166.182 106.01 163 109.921 163H140.737C144.647 163 147.828 166.182 147.828 170.092V224.908C147.828 228.818 144.647 232 140.737 232H109.921C106.01 232 102.828 228.818 102.828 224.908V224.908Z" fill="#3F3D56"/>
<path d="M28.168 288.588V233.773C28.168 229.862 31.3496 226.681 35.2603 226.681H66.0762C69.9868 226.681 73.168 229.862 73.168 233.773V288.588C73.168 292.499 69.9868 295.681 66.0762 295.681H35.2603C31.3496 295.681 28.168 292.499 28.168 288.588V288.588Z" fill="#3F3D56"/>
<path d="M172.485 353.219C168.76 353.087 165.757 350.064 165.646 346.339L164.088 293.357C164.022 291.096 165.001 288.994 166.774 287.589C168.548 286.184 170.819 285.716 173.005 286.296L174.563 286.712C177.663 287.539 179.828 290.356 179.828 293.564V346.131C179.828 348.072 179.059 349.885 177.662 351.233C176.327 352.522 174.589 353.223 172.743 353.223C172.657 353.223 172.571 353.222 172.485 353.219H172.485Z" fill="#3F3D56"/>
<path d="M107.828 345.908V290.933C107.828 287.052 110.868 283.938 114.748 283.842L142.756 283.16C146.638 283.106 149.905 286.153 150.019 290.045L151.632 345.702C151.688 347.634 150.977 349.463 149.629 350.849C148.282 352.236 146.476 353 144.542 353H114.92C111.01 353 107.828 349.818 107.828 345.908H107.828Z" fill="#3F3D56"/>
<path d="M273.376 383.473L295.328 422.5L297.848 466.39L315.328 467.5L309.328 415.5L273.328 365.5C270.221 371.093 270.239 377.897 273.376 383.473Z" fill="#CCCCCC"/>
<path d="M297.146 453.828L225.898 454.802L225.911 455.802L297.16 454.828L297.146 453.828Z" fill="#3F3D56"/>
<path d="M292.824 445.003L225.27 445.53L225.277 446.53L292.832 446.003L292.824 445.003Z" fill="#3F3D56"/>
<path d="M289.318 435.984L224.699 437.246L224.718 438.246L289.338 436.984L289.318 435.984Z" fill="#3F3D56"/>
<path d="M287.312 427.015L225.257 429.076L225.29 430.076L287.345 428.015L287.312 427.015Z" fill="#3F3D56"/>
<path d="M284.312 419.029L224.69 421.125L224.725 422.125L284.347 420.029L284.312 419.029Z" fill="#3F3D56"/>
<path d="M280.328 412H222.257V413H280.328V412Z" fill="#3F3D56"/>
<path d="M277.322 404.983L220.886 405.645L220.898 406.645L277.334 405.983L277.322 404.983Z" fill="#3F3D56"/>
<path d="M274.311 397.989L219.625 399.805L219.659 400.805L274.344 398.989L274.311 397.989Z" fill="#3F3D56"/>
<path d="M272.32 391.026L218.319 391.975L218.337 392.975L272.338 392.026L272.32 391.026Z" fill="#3F3D56"/>
<path d="M268.312 384.1L216.606 385.715L216.637 386.715L268.343 385.1L268.312 384.1Z" fill="#3F3D56"/>
<path d="M266.323 378L215.073 378.5L215.083 379.501L266.333 379L266.323 378Z" fill="#3F3D56"/>
<path d="M211.328 357.408V289.593C211.328 285.682 214.51 282.5 218.421 282.5H251.237C255.147 282.5 258.328 285.682 258.328 289.593V357.408C258.328 361.318 255.147 364.5 251.237 364.5H218.421C214.51 364.5 211.328 361.318 211.328 357.408V357.408Z" fill="#BCD3E7"/>
<path d="M134.887 456.499L16.7964 452.799L16.3281 452.769V407.812C16.3281 402.126 80.9536 397.5 86.6392 397.5H144.017C149.703 397.5 154.328 402.126 154.328 407.812V456.5H153.828L134.887 456.499H134.887Z" fill="#CCCCCC"/>
<path d="M215.328 234.408V182.592C215.328 178.682 218.51 175.5 222.421 175.5H233.237C237.147 175.5 240.328 178.682 240.328 182.592V234.408C240.328 238.318 237.147 241.5 233.237 241.5H222.421C218.51 241.5 215.328 238.318 215.328 234.408Z" fill="#3F3D56"/>
<path d="M226.328 461.5L223.328 417.5L214.328 375.5L211.828 364C206.691 360.506 199.773 364.392 200.083 370.597L200.328 375.5L209.328 417.5L212.328 461.5" fill="#CCCCCC"/>
</g>
<defs>
<clipPath id="clip0_260_32">
<rect width="315.894" height="468.037" fill="white"/>
</clipPath>
</defs>
</svg>
