<svg width="350" height="30" viewBox="0 0 350 30" fill="none" xmlns="http://www.w3.org/2000/svg">
<path d="M7.59372 12.2064C10.334 12.2064 13.2048 12.0793 15.9451 11.9521C17.1195 11.9521 18.1634 11.825 19.3378 11.825C24.2965 11.5707 29.2551 11.3164 34.2137 11.0621C40.2163 10.8078 46.0883 10.4263 52.0909 10.172C60.5727 9.66343 69.0546 9.28197 77.5365 8.77337C79.4938 8.64622 81.4512 8.64622 83.4085 8.51907C88.3672 8.26477 93.3258 8.01047 98.2844 7.88332C103.243 7.62902 108.202 7.37472 113.16 7.24757C115.118 7.12042 117.075 6.99327 119.032 6.99327C126.862 6.73897 134.822 6.48467 142.651 6.23037C147.479 6.10322 152.307 5.97607 157.266 5.72177C159.223 5.72177 161.05 5.59461 163.008 5.59461C170.576 5.46746 178.275 5.34031 185.843 5.21316C193.412 5.08601 200.85 4.95886 208.418 4.83171C210.375 4.83171 212.333 4.83171 214.421 4.83171C219.379 4.83171 224.207 4.83171 229.166 4.83171C236.865 4.83171 244.433 4.83171 252.132 4.70456C254.612 4.70456 257.091 4.70456 259.57 4.70456C264.79 4.70456 270.009 4.70456 275.229 4.70456C275.621 4.70456 276.143 4.70456 276.534 4.70456C264.79 4.83171 252.915 4.95886 241.171 5.21316C236.213 5.34031 231.384 5.34031 226.426 5.46746C224.338 5.46746 222.12 5.46746 220.032 5.59461C212.855 5.72176 205.808 5.97607 198.631 6.10322C190.41 6.35752 182.19 6.48467 173.969 6.73897C172.533 6.73897 171.228 6.86612 169.793 6.86612C165.356 7.12042 161.05 7.24757 156.614 7.50187C147.74 7.88332 138.867 8.26477 129.994 8.64622C128.689 8.64622 127.384 8.77337 126.079 8.90052C121.773 9.15482 117.336 9.53627 113.03 9.79058C105.2 10.2992 97.5015 10.8078 89.6721 11.3164C87.5842 11.4435 85.3659 11.6978 83.278 11.825C78.3194 12.2064 73.3608 12.5879 68.4022 13.0965C62.1386 13.6051 55.7446 14.1137 49.4811 14.6223C40.7382 15.3852 31.8649 16.1481 23.1221 16.911C21.0342 17.0381 18.9464 17.2924 16.728 17.4196C12.9438 17.801 9.15961 18.1825 5.37539 18.5639C4.98392 18.5639 4.59245 18.8182 4.59245 19.3269C4.59245 19.7083 4.98392 20.0898 5.37539 20.0898C6.81078 20.0898 8.11568 20.2169 9.55108 20.2169C9.2901 20.8527 9.15961 21.2341 9.15961 21.6156C9.15961 23.0142 10.334 24.2857 11.8999 24.2857C22.7306 23.65 33.4308 22.8871 44.2615 22.3785C53.6568 21.997 63.0521 21.4884 72.4473 21.107C82.7561 20.5984 93.1953 20.0898 103.504 19.7083C106.766 19.5812 110.029 19.454 113.291 19.1997C114.204 19.1997 115.118 19.0725 116.162 19.0725C132.864 18.6911 149.567 18.1825 166.27 17.801C175.143 17.5467 184.147 17.2924 193.02 17.1653C196.283 17.0381 199.414 17.0381 202.677 16.911C219.771 16.6567 236.865 16.4024 253.959 16.1481C261.267 16.0209 268.574 15.8938 275.882 15.7666C282.145 15.6395 288.409 15.6395 294.672 15.3852C299.892 15.258 304.981 15.0037 310.2 14.8766C312.81 14.7494 315.42 14.7494 317.899 14.6223C323.771 14.2408 329.644 13.8594 335.516 13.4779C335.124 13.9865 335.124 14.7494 335.255 15.258C335.385 15.8938 335.777 16.4024 336.429 16.6567C336.951 16.911 337.734 17.1653 338.256 16.911C339.561 16.4024 340.866 15.8938 342.04 15.3852C342.04 15.3852 342.04 15.3852 341.91 15.3852C342.04 15.3852 342.04 15.258 342.171 15.258C342.301 15.258 342.432 15.1309 342.432 15.1309H342.301C342.953 14.8766 343.606 14.6223 344.389 14.2408C345.041 13.9865 345.824 13.6051 346.477 13.3508C347.26 12.9693 347.912 12.5879 348.695 12.2064C349.478 11.825 350 10.8078 350 9.91773C350 9.40912 349.87 9.02767 349.609 8.51907C349.348 8.01047 348.695 7.37472 348.043 7.24757C347.39 7.12042 346.738 6.99327 346.085 6.99327C345.955 6.99327 345.824 6.99327 345.694 6.99327C345.302 6.99327 344.78 6.99327 344.389 7.12042C343.345 7.24757 342.432 7.37472 341.388 7.37472C340.605 7.37472 339.822 7.50187 338.908 7.50187C336.69 7.62902 334.602 7.75617 332.384 8.01047C331.862 8.01047 331.209 8.13762 330.687 8.13762C330.948 7.88332 331.079 7.62902 331.079 7.37472C331.209 7.12042 331.209 6.86612 331.209 6.61182C331.209 6.48467 331.209 6.23037 331.34 6.10322C331.34 5.84892 331.34 5.59461 331.209 5.46746C331.209 5.46746 331.34 5.46746 331.34 5.34031C331.731 5.08601 332.123 4.83171 332.384 4.32311C332.645 3.94166 332.775 3.43306 332.775 2.92446C332.775 2.41586 332.645 2.03441 332.384 1.5258C332.253 1.39865 332.123 1.14435 331.992 1.0172C331.601 0.635752 331.209 0.508601 330.818 0.381451C330.035 0.12715 329.122 0 328.208 0C327.425 0 326.773 0 325.99 0C324.946 0 323.902 0 322.858 0C321.423 0 319.857 0 318.421 0C314.507 0 310.592 0 306.677 0C303.024 0 299.239 0 295.586 0C292.193 0 288.931 0 285.538 0C272.097 0 258.787 0.12715 245.347 0.254301C235.299 0.381451 225.251 0.508601 215.204 0.508601C210.767 0.508601 206.2 0.635752 201.763 0.762902C191.715 1.0172 181.668 1.14435 171.62 1.39865C168.749 1.39865 165.878 1.5258 163.008 1.5258C161.311 1.5258 159.745 1.65295 158.049 1.65295C148.132 2.03441 138.214 2.41586 128.297 2.79731C125.296 2.92446 122.295 3.05161 119.163 3.17876C117.466 3.17876 115.77 3.30591 114.074 3.43306C104.156 3.94166 94.3697 4.45026 84.4524 4.95886C79.3633 5.21316 74.2742 5.46746 69.1851 5.84892C60.4423 6.35752 51.6994 6.86612 43.0871 7.50187C35.5186 8.01047 27.9502 8.39192 20.3818 8.77337C19.2073 8.90052 18.0329 8.90052 16.728 9.02767C14.7707 9.15482 12.8133 9.15482 10.856 9.28197C9.15961 9.79058 7.33274 9.79058 5.63637 9.79058C5.50588 9.28197 4.98392 8.90052 4.59245 9.02767C3.41804 9.02767 2.37411 9.15482 1.1997 9.28197C0.677742 9.40912 0.155781 9.66343 0.0252909 10.172C-0.105199 10.8078 0.286271 11.4435 0.808232 11.5707C1.33019 11.6978 1.85215 11.825 2.37411 11.9521C2.89608 12.0793 3.28755 12.0793 3.80951 12.0793C5.11441 12.2064 6.28882 12.2064 7.59372 12.2064ZM312.941 8.13762C314.507 8.13762 316.203 8.13762 317.769 8.13762C317.899 8.51907 318.16 8.77337 318.421 9.02767C317.769 9.02767 317.116 9.15482 316.595 9.15482C315.42 9.15482 314.246 9.28197 313.071 9.28197C307.852 9.40912 302.763 9.66343 297.543 9.79058C295.194 9.91773 292.845 10.0449 290.496 10.0449C286.843 10.0449 283.059 10.172 279.405 10.172C270.923 10.2992 262.572 10.4263 254.09 10.5535C237.648 10.8078 221.337 11.0621 204.895 11.3164C193.151 11.4435 181.407 11.825 169.663 12.2064C152.046 12.715 134.3 13.0965 116.684 13.6051C113.16 13.7322 109.637 13.8594 106.114 14.1137C96.0661 14.6223 86.0183 15.0037 75.9706 15.5123C66.1838 16.0209 56.2666 16.4024 46.4798 16.911C45.5664 16.911 44.6529 17.0381 43.7395 17.0381C46.3493 16.7838 49.0896 16.6567 51.6994 16.4024C60.9642 15.7666 70.229 15.0037 79.4938 14.368C82.7561 14.1137 86.0183 13.8594 89.1501 13.6051C90.8465 13.4779 92.5428 13.3508 94.1087 13.3508C103.895 12.8422 113.552 12.2064 123.208 11.6978C125.035 11.5707 126.992 11.4435 128.819 11.3164C131.559 11.1892 134.3 11.0621 136.91 11.0621C146.827 10.6806 156.744 10.2992 166.661 9.91773C168.88 9.79058 171.098 9.79058 173.186 9.66343C173.708 9.66343 174.36 9.66343 174.882 9.66343C176.448 9.66343 178.014 9.66343 179.449 9.53627C189.367 9.28197 199.414 9.15482 209.332 8.90052C213.899 8.77337 218.466 8.64622 223.033 8.64622C237.778 8.51907 252.654 8.39192 267.4 8.26477C282.798 8.26477 297.934 8.13762 312.941 8.13762Z" fill="#96B4FF"/>
<path d="M27.1428 30.0001C27.5372 30.0001 27.857 29.6803 27.857 29.2858C27.857 28.8913 27.5372 28.5715 27.1428 28.5715C26.7483 28.5715 26.4285 28.8913 26.4285 29.2858C26.4285 29.6803 26.7483 30.0001 27.1428 30.0001Z" fill="#96B4FF"/>
</svg>
